<?xml version="1.0" encoding="utf-8"?>
<!-- Generator: Adobe Illustrator 25.4.1, SVG Export Plug-In . SVG Version: 6.00 Build 0)  -->
<svg version="1.1" id="Layer_1" xmlns="http://www.w3.org/2000/svg" xmlns:xlink="http://www.w3.org/1999/xlink" x="0px" y="0px"
	 viewBox="0 0 100 100" style="enable-background:new 0 0 100 100;" xml:space="preserve">
<style type="text/css">
	.st0{fill:none;stroke:#000000;stroke-width:4;stroke-linecap:round;stroke-miterlimit:10;}
</style>
<g>
	<path class="st0" d="M62.4,62.3C64,58.6,65,54.4,65,50s-1-8.6-2.7-12.4C59.7,31.9,55.4,27.1,50,24c-4.4-2.6-9.5-4-15-4
		c-4.4,0-8.6,0.9-12.4,2.7C12.3,27.4,5,37.9,5,50s7.2,22.6,17.7,27.3"/>
	<path class="st0" d="M37.7,37.7C36,41.4,35,45.6,35,50s0.9,8.5,2.6,12.3c2.6,5.8,7,10.5,12.4,13.7c4.4,2.6,9.5,4,15,4
		c4.4,0,8.6-0.9,12.3-2.7C87.7,72.7,95,62.2,95,50s-7.2-22.6-17.6-27.3"/>
	<path class="st0" d="M22.7,22.7C27.3,12.3,37.8,5,50,5s22.7,7.3,27.3,17.7C79,26.5,80,30.6,80,35c0,12.2-7.2,22.6-17.6,27.3
		C58.6,64,54.4,65,50,65s-8.6-0.9-12.4-2.7"/>
	<path class="st0" d="M77.3,77.3C72.6,87.7,62.1,95,50,95s-22.6-7.2-27.3-17.6C21,73.6,20,69.4,20,65c0-5.5,1.5-10.6,4-15
		c3.1-5.4,7.9-9.8,13.6-12.4C41.4,36,45.6,35,50,35s8.6,0.9,12.3,2.6"/>
</g>
</svg>
